<?xml version="1.0" encoding="UTF-8" standalone="no"?>
<!-- Created with Inkscape (http://www.inkscape.org/) -->

<svg
   version="1.1"
   id="svg2"
   xml:space="preserve"
   width="666.66669"
   height="666.66669"
   viewBox="0 0 666.66669 666.66669"
   sodipodi:docname="CHAMP-Logo-RGB-Full-Color-500x500.ai"
   xmlns:inkscape="http://www.inkscape.org/namespaces/inkscape"
   xmlns:sodipodi="http://sodipodi.sourceforge.net/DTD/sodipodi-0.dtd"
   xmlns="http://www.w3.org/2000/svg"
   xmlns:svg="http://www.w3.org/2000/svg"><defs
     id="defs6"><clipPath
       clipPathUnits="userSpaceOnUse"
       id="clipPath16"><path
         d="M 0,500 H 500 V 0 H 0 Z"
         id="path14" /></clipPath><linearGradient
       x1="0"
       y1="0"
       x2="1"
       y2="0"
       gradientUnits="userSpaceOnUse"
       gradientTransform="matrix(0,-226.61182,-226.61182,0,367.5,485)"
       spreadMethod="pad"
       id="linearGradient40"><stop
         style="stop-opacity:1;stop-color:#8bd6f2"
         offset="0"
         id="stop34" /><stop
         style="stop-opacity:1;stop-color:#0a7ac2"
         offset="0.45"
         id="stop36" /><stop
         style="stop-opacity:1;stop-color:#0a7ac2"
         offset="1"
         id="stop38" /></linearGradient><linearGradient
       x1="0"
       y1="0"
       x2="1"
       y2="0"
       gradientUnits="userSpaceOnUse"
       gradientTransform="matrix(0,-470,-470,0,250,485)"
       spreadMethod="pad"
       id="linearGradient62"><stop
         style="stop-opacity:1;stop-color:#e12142"
         offset="0"
         id="stop56" /><stop
         style="stop-opacity:1;stop-color:#870026"
         offset="0.8"
         id="stop58" /><stop
         style="stop-opacity:1;stop-color:#870026"
         offset="1"
         id="stop60" /></linearGradient><clipPath
       clipPathUnits="userSpaceOnUse"
       id="clipPath72"><path
         d="M 0,500 H 500 V 0 H 0 Z"
         id="path70" /></clipPath></defs><sodipodi:namedview
     id="namedview4"
     pagecolor="#ffffff"
     bordercolor="#666666"
     borderopacity="1.0"
     inkscape:pageshadow="2"
     inkscape:pageopacity="0.0"
     inkscape:pagecheckerboard="0" /><g
     id="g8"
     inkscape:groupmode="layer"
     inkscape:label="CHAMP-Logo-RGB-Full-Color-500x500"
     transform="matrix(1.3333333,0,0,-1.3333333,0,666.66667)"><g
       id="g10"><g
         id="g12"
         clip-path="url(#clipPath16)"><g
           id="g18"
           transform="translate(465)"><path
             d="m 0,0 h -430 c -19.33,0 -35,15.67 -35,35 v 430 c 0,19.33 15.67,35 35,35 H 35 V 35 C 35,15.67 19.33,0 0,0"
             style="fill:#ffffff;fill-opacity:1;fill-rule:nonzero;stroke:none"
             id="path20" /></g></g></g><g
       id="g22"><g
         id="g24"><g
           id="g30"><g
             id="g32"><path
               d="M 250,485 C 439.725,430.023 485,258.388 485,258.388 v 0 V 485 Z"
               style="fill:url(#linearGradient40);stroke:none"
               id="path42" /></g></g></g></g><g
       id="g44"><g
         id="g46"><g
           id="g52"><g
             id="g54"><path
               d="M 50,485 C 30.67,485 15,469.33 15,450 V 450 50 C 15,30.67 30.67,15 50,15 v 0 h 400 c 19.33,0 35,15.67 35,35 v 0 80 c 0,196.061 -158.939,355 -355,355 v 0 z"
               style="fill:url(#linearGradient62);stroke:none"
               id="path64" /></g></g></g></g><g
       id="g66"><g
         id="g68"
         clip-path="url(#clipPath72)"><g
           id="g74"
           transform="translate(65.6022,55.3896)"><path
             d="m 0,0 c -5.584,3.072 -9.96,7.3 -13.131,12.685 -3.171,5.384 -4.757,11.447 -4.757,18.186 0,6.739 1.586,12.8 4.757,18.186 3.171,5.384 7.563,9.613 13.181,12.685 5.614,3.072 11.892,4.608 18.829,4.608 5.417,0 10.372,-0.909 14.865,-2.725 4.493,-1.818 8.325,-4.509 11.497,-8.077 l -2.625,-2.545 c -2.011,-1.948 -5.147,-2.189 -7.395,-0.519 -4.525,3.364 -9.841,5.046 -15.945,5.046 -5.154,0 -9.812,-1.157 -13.975,-3.469 -4.161,-2.313 -7.417,-5.5 -9.761,-9.563 -2.346,-4.064 -3.518,-8.607 -3.518,-13.627 0,-5.022 1.172,-9.564 3.518,-13.627 2.344,-4.063 5.6,-7.251 9.761,-9.563 4.163,-2.314 8.821,-3.469 13.975,-3.469 6.067,0 11.379,1.709 15.941,5.128 2.245,1.682 5.392,1.442 7.407,-0.51 L 45.241,6.293 C 42.069,2.725 38.22,0.015 33.695,-1.833 29.169,-3.684 24.197,-4.609 18.78,-4.609 11.842,-4.609 5.582,-3.072 0,0"
             style="fill:#ffffff;fill-opacity:1;fill-rule:nonzero;stroke:none"
             id="path76" /></g><g
           id="g78"
           transform="translate(193.3473,120.9467)"><path
             d="m 0,0 v -69.373 h -5.106 c -2.653,0 -4.805,2.152 -4.805,4.805 v 26.116 h -39.84 v -30.921 h -5.106 c -2.653,0 -4.805,2.152 -4.805,4.805 v 59.763 c 0,2.654 2.152,4.805 4.805,4.805 h 5.106 v -21.181 c 0,-4.777 3.872,-8.649 8.649,-8.649 h 31.191 v 25.025 c 0,2.654 2.152,4.805 4.805,4.805 z"
             style="fill:#ffffff;fill-opacity:1;fill-rule:nonzero;stroke:none"
             id="path80" /></g><g
           id="g82"
           transform="translate(263.5627,76.8454)"><path
             d="M 0,0 -14.965,33.993 -25.775,9.437 C -27.732,4.991 -24.476,0 -19.619,0 Z m 3.468,-7.928 h -36.867 l -7.631,-17.343 h -3.023 c -3.367,0 -5.61,3.477 -4.221,6.544 l 26.919,59.441 c 0.934,2.062 2.988,3.387 5.252,3.387 h 6.093 l 31.516,-69.372 h -6.018 c -2.667,0 -5.083,1.576 -6.157,4.017 z"
             style="fill:#ffffff;fill-opacity:1;fill-rule:nonzero;stroke:none"
             id="path84" /></g><g
           id="g86"
           transform="translate(366.1847,57.3286)"><path
             d="m 0,0 -0.08,40.571 c -0.002,1.182 -1.561,1.609 -2.166,0.593 L -23.993,4.632 c -0.724,-1.217 -2.036,-1.962 -3.451,-1.962 -1.412,0 -2.719,0.74 -3.445,1.951 L -52.63,40.882 c -0.607,1.013 -2.164,0.582 -2.164,-0.599 V -5.754 h -3.748 c -3.184,0 -5.766,2.581 -5.766,5.765 v 57.841 c 0,3.185 2.582,5.766 5.766,5.766 h 2.361 l 26.598,-44.815 c 1.051,-1.771 3.617,-1.763 4.658,0.014 l 24.554,41.948 c 1.034,1.767 2.928,2.853 4.976,2.853 H 9.426 L 9.525,-5.754 H 5.766 C 2.586,-5.754 0.006,-3.18 0,0"
             style="fill:#ffffff;fill-opacity:1;fill-rule:nonzero;stroke:none"
             id="path88" /></g><g
           id="g90"
           transform="translate(445.5778,85.2197)"><path
             d="m 0,0 c 3.303,2.676 4.955,6.524 4.955,11.546 0,5.02 -1.652,8.869 -4.955,11.546 -3.305,2.675 -8.095,4.013 -14.371,4.013 H -31.219 V 4.635 c 0,-4.777 3.872,-8.649 8.649,-8.649 h 8.199 C -8.095,-4.014 -3.305,-2.676 0,0 m 7.135,29.286 c 5.154,-4.296 7.73,-10.208 7.73,-17.74 0,-7.532 -2.576,-13.446 -7.73,-17.74 -5.154,-4.295 -12.224,-6.441 -21.209,-6.441 h -17.145 v -21.011 h -4.145 c -3.184,0 -5.765,2.582 -5.765,5.766 v 57.841 c 0,3.185 2.581,5.766 5.765,5.766 h 21.29 c 8.985,0 16.055,-2.147 21.209,-6.441"
             style="fill:#ffffff;fill-opacity:1;fill-rule:nonzero;stroke:none"
             id="path92" /></g></g></g></g></svg>
