<?xml version="1.0" encoding="utf-8"?>
<!-- Generator: Adobe Illustrator 25.4.1, SVG Export Plug-In . SVG Version: 6.00 Build 0)  -->
<svg version="1.1" id="Layer_1" xmlns="http://www.w3.org/2000/svg" xmlns:xlink="http://www.w3.org/1999/xlink" x="0px" y="0px"
	 viewBox="0 0 503.2 81.9" style="enable-background:new 0 0 503.2 81.9;" xml:space="preserve">
<style type="text/css">
	.st0{fill:#231F20;}
</style>
<g>
	<path class="st0" d="M7.1,56.6c0.2,3.1,1,6.1,2.3,8.8c1.2,2.3,2.8,4.3,4.9,5.9c2,1.5,4.4,2.7,6.9,3.3c2.7,0.7,5.5,1,8.3,1
		c3.1,0.1,6.1-0.4,9-1.3c2.3-0.7,4.4-1.9,6.2-3.5c1.6-1.4,2.8-3.2,3.5-5.1c0.8-2,1.2-4,1.1-6.2c0.1-2.6-0.6-5.2-2-7.3
		c-1.4-1.9-3.2-3.5-5.3-4.6c-2.4-1.3-4.9-2.2-7.6-2.9c-2.9-0.7-5.8-1.4-8.8-2.1s-5.9-1.5-8.8-2.4c-2.7-0.9-5.3-2.1-7.6-3.7
		c-2.2-1.6-4-3.7-5.3-6.1c-1.5-2.9-2.1-6.2-2-9.5c0-2.7,0.6-5.3,1.7-7.8c1.2-2.6,2.9-4.9,5-6.7c2.4-2.1,5.2-3.6,8.3-4.6
		c3.7-1.2,7.5-1.8,11.4-1.7c3.9-0.1,7.8,0.5,11.5,1.8c3,1.1,5.8,2.8,8.2,5c2.1,2.1,3.8,4.6,4.9,7.4c1.1,2.9,1.6,5.9,1.6,9h-7
		c0.1-2.6-0.5-5.3-1.6-7.7c-1-2.1-2.4-3.9-4.3-5.3c-1.8-1.4-3.9-2.4-6.2-3c-2.3-0.7-4.7-1-7.1-1c-3.2-0.1-6.4,0.4-9.5,1.6
		c-2.3,0.9-4.4,2.3-6.1,4c-1.5,1.6-2.6,3.4-3.2,5.5c-0.6,2-0.7,4-0.3,6c0.3,2.3,1.4,4.4,3,6c1.7,1.6,3.7,2.9,5.8,3.8
		c2.5,1,5,1.8,7.6,2.4c2.8,0.6,5.6,1.3,8.5,1.9s5.7,1.5,8.4,2.5c2.6,0.9,5,2.2,7.2,3.8c2.1,1.6,3.8,3.7,5,6.1c1.4,2.9,2,6.1,1.9,9.3
		c0,7.2-2.5,12.8-7.5,16.7c-5,4-11.9,5.9-20.9,5.9c-3.8,0-7.6-0.5-11.2-1.6c-3.3-0.9-6.4-2.6-9-4.8c-2.5-2.1-4.5-4.8-5.9-7.9
		C0.6,64.2-0.1,60.4,0,56.6H7.1z"/>
	<path class="st0" d="M88.8,80c-0.8,0.1-1.8,0.4-3.1,0.8c-1.4,0.4-2.9,0.6-4.3,0.5c-3.2,0-5.7-0.8-7.4-2.4c-1.7-1.6-2.5-4.5-2.5-8.7
		V29.3h-7.9v-5.4h7.9V8.3h6.5v15.6h10.5v5.4H77.9v38.3c0,1.4,0,2.6,0.1,3.6c0,0.9,0.2,1.7,0.6,2.5c0.4,0.7,1,1.2,1.7,1.4
		c1,0.3,2.1,0.5,3.2,0.4c0.9,0,1.8-0.1,2.7-0.2c0.9-0.2,1.8-0.3,2.7-0.5L88.8,80z"/>
	<path class="st0" d="M124.8,47.2c1.2-0.2,2.7-0.4,4.4-0.7c1.4-0.2,2.8-0.6,4.2-1.2c1-0.5,1.8-1.4,2-2.5c0.2-1.1,0.4-2.2,0.4-3.3
		c0.1-3-1.1-6-3.2-8.2c-2.1-2.1-5.7-3.2-10.8-3.2c-2.1,0-4.1,0.2-6.2,0.6c-1.8,0.3-3.4,1-4.9,2c-1.4,1-2.6,2.3-3.4,3.9
		c-1,1.9-1.6,4-1.8,6.1h-6.6c0.1-3,0.9-5.9,2.3-8.5c1.2-2.3,2.9-4.2,5-5.7c2.2-1.5,4.6-2.6,7.1-3.2c2.8-0.7,5.7-1,8.6-1
		c2.7,0,5.3,0.3,7.9,0.9c2.3,0.5,4.5,1.5,6.5,2.9c1.9,1.4,3.4,3.2,4.3,5.4c1.1,2.6,1.7,5.4,1.6,8.2v30.5c0,2.5,0.4,4.1,1.3,4.8
		s2.7,0.5,5.5-0.5v5.1l-2.2,0.6c-0.9,0.3-1.9,0.4-2.9,0.4c-1,0-2-0.1-2.9-0.3c-0.9-0.1-1.8-0.4-2.6-1c-0.7-0.6-1.2-1.2-1.6-2
		c-0.4-0.8-0.7-1.6-0.8-2.5c-0.2-0.9-0.2-1.9-0.2-2.9c-2.6,3-5.8,5.3-9.4,7c-3.6,1.6-7.5,2.4-11.5,2.3c-2.4,0-4.8-0.3-7.1-1
		c-2.2-0.6-4.2-1.6-6-3c-1.7-1.3-3.1-3.1-4.1-5c-1.1-2.2-1.6-4.6-1.5-7.1c0-9.5,6.5-15.1,19.5-16.8L124.8,47.2z M135.8,50.4
		c-2.7,1.1-5.5,1.9-8.3,2.3c-2.8,0.4-5.6,0.7-8.4,0.9c-5,0.4-8.8,1.5-11.6,3.3c-2.8,1.9-4.2,4.7-4.2,8.5c0,1.6,0.3,3.1,1,4.5
		c0.7,1.2,1.6,2.3,2.7,3.1c1.2,0.9,2.5,1.5,3.9,1.8c1.5,0.4,3,0.6,4.5,0.6c2.6,0,5.1-0.3,7.6-1c2.3-0.6,4.6-1.6,6.5-3
		c1.9-1.3,3.5-3,4.6-5c1.2-2.2,1.8-4.8,1.7-7.3L135.8,50.4z"/>
	<path class="st0" d="M166,79.8h-6.5V23.9h6.5v10.5h0.2c1.8-4.5,4.1-7.6,7-9.3s6.6-2.6,11.3-2.6v7c-3.1-0.2-6.2,0.4-9.1,1.7
		c-2.3,1.2-4.2,2.9-5.7,5c-1.5,2.2-2.5,4.8-2.9,7.4c-0.5,2.9-0.8,5.9-0.8,8.9L166,79.8z"/>
	<path class="st0" d="M214.8,80c-0.8,0.1-1.8,0.4-3.1,0.8c-1.4,0.4-2.9,0.6-4.3,0.5c-3.2,0-5.7-0.8-7.4-2.4
		c-1.7-1.6-2.5-4.5-2.5-8.7V29.3h-7.9v-5.4h7.9V8.3h6.5v15.6h10.5v5.4h-10.5v38.3c0,1.4,0,2.6,0.1,3.6c0,0.9,0.3,1.7,0.6,2.5
		c0.4,0.7,1,1.1,1.7,1.4c1,0.3,2.1,0.5,3.2,0.4c0.9,0,1.8-0.1,2.6-0.2c0.9-0.2,1.8-0.3,2.6-0.5L214.8,80z"/>
	<path class="st0" d="M277.8,46.2c-4.5,3.8-11,5.7-19.5,5.7h-16.2v28H226V2.1h33.4c7.7,0,13.8,2,18.4,6c4.6,4,6.9,10.2,6.9,18.6
		C284.6,35.9,282.4,42.4,277.8,46.2z M265.4,18.2c-2.1-1.7-4.9-2.6-8.6-2.6h-14.6v22.9h14.6c3.7,0,6.6-0.9,8.6-2.8
		c2.1-1.9,3.1-4.8,3.1-8.9S267.5,19.9,265.4,18.2L265.4,18.2z"/>
	<path class="st0" d="M328.4,21l1.3,0.1v15.4c-1-0.1-1.8-0.2-2.5-0.2s-1.3,0-1.8,0c-6.1,0-10.1,2-12.2,5.9
		c-1.2,2.2-1.7,5.6-1.7,10.2v27.4h-15.1V22.3h14.4v10c2.3-3.8,4.3-6.5,6.1-7.9c2.8-2.3,6.5-3.5,11-3.5C327.9,20.9,328.2,21,328.4,21
		z"/>
	<path class="st0" d="M398.5,33.6V22.9h8v-16h14.9v16h9.3v10.7h-9.3v30.4c0,2.4,0.3,3.8,0.9,4.4s2.4,0.9,5.5,0.9h1.5l1.5-0.1v11.2
		l-7.1,0.3c-7.1,0.3-11.9-1-14.5-3.7c-1.7-1.7-2.5-4.4-2.5-8V33.6H398.5z"/>
	<path d="M396.6,49.5l-13-22.4c-1.1-1.9-3.2-3.1-5.4-3.1h-25.9c-2.2,0-4.2,1.2-5.4,3.1l-12.9,22.4c-1.1,1.9-1.1,4.3,0,6.2l13,22.4
		c1.1,1.9,3.1,3.1,5.4,3.1h25.9c2.2,0,4.3-1.2,5.4-3.1l13-22.4C397.7,53.8,397.7,51.4,396.6,49.5z M382,54.6L375.4,66
		c-0.7,1.2-2,2-3.5,2h-13.1c-1.4,0-2.8-0.8-3.5-2l-6.5-11.4c-0.7-1.2-0.7-2.8,0-4l6.5-11.4c0.7-1.2,2-2,3.5-2h13.1
		c1.4,0,2.8,0.8,3.5,2l6.6,11.3C382.7,51.9,382.7,53.4,382,54.6z"/>
	<path d="M496.6,49.5l-12.9-22.4c-1.1-1.9-3.2-3.1-5.4-3.1h-25.9c-2.2,0-4.2,1.2-5.4,3.1l-12.9,22.4c-1.1,1.9-1.1,4.3,0,6.2l13,22.4
		c1.1,1.9,3.1,3.1,5.4,3.1h25.9c2.2,0,4.3-1.2,5.4-3.1l13-22.4C497.7,53.8,497.7,51.4,496.6,49.5z M481.9,54.6L475.4,66
		c-0.7,1.2-2,2-3.5,2h-13.1c-1.4,0-2.8-0.8-3.5-2l-6.5-11.3c-0.7-1.2-0.7-2.8,0-4l6.5-11.4c0.7-1.2,2-2,3.5-2h13.1
		c1.4,0,2.8,0.8,3.5,2l6.5,11.3C482.6,51.9,482.6,53.4,481.9,54.6z"/>
</g>
</svg>
